<svg xmlns="http://www.w3.org/2000/svg" viewBox="0 0 72 72"><path fill="#d0cfce" d="M36.197 9.536c-3.149 0-4.773.67-6.779 2.703-1.863 1.888-3.168 3.664-3.168 6.468L26 36.626c0 2.64.326 4.69 2 6.54 2.017 2.228 4.68 4 8 4 6.075 0 10-4.72 10-10.54l-.25-17.92c0-2.866-1.191-4.346-3.129-6.246-1.997-1.958-3.34-2.924-6.424-2.924Zm3.803 26c0 2.557-1.79 4.63-4 4.63-1.156 0-2.003-.397-3-1-1.212-.732-1.107-2.392-1-3.63v-15.74c0-1.155-.604-2.819 0-3.63.734-.984 2.789-1 4-1 1.3 0 3.27-.113 4 1 .51.777 0 2.579 0 3.63z"/><path fill="#9b9b9a" d="M32.006 35.537c.116-2.436 1.86-4.37 3.994-4.37 1.294 0 3.269.895 4 2 .517.779 0 1.57 0 2.629v15.74c0 1.173.621 2.814 0 3.63-.733.963-2.804 1-4 1-1.325 0-3.272-.852-4-2-.486-.767 0-1.606 0-2.63v-5.808C29 45.29 26 36 26 36v15.896c0 5.672 3.925 9.52 10 9.52s10-3.848 10-9.52v-17.46c0-5.672-3.925-10.27-10-10.27-1.616 0-3.151.326-4.533.91z"/><g fill="none" stroke="#000" stroke-linecap="round" stroke-linejoin="round" stroke-width="2"><path d="M37.232 41.013q-.593.151-1.232.153a5 5 0 0 1-5-5v-17a5 5 0 0 1 10 0v3"/><path d="M37.36 46.074q-.668.091-1.36.092c-5.523 0-10-4.477-10-10v-17c0-5.523 4.477-10 10-10s10 4.477 10 10v7"/><path d="M34.76 30.32A5 5 0 0 1 41 35.166v17.001a5 5 0 0 1-10 0v-3"/><path d="M34.75 25.244q.615-.078 1.25-.078c5.523 0 10 4.477 10 10v17c0 5.523-4.477 10-10 10s-10-4.477-10-10v-6"/></g></svg>